<svg width="34" height="37" viewBox="0 0 34 37" fill="none" xmlns="http://www.w3.org/2000/svg">
<path d="M0.488281 33.3452C0.488281 35.2496 2.08855 36.7947 4.06098 36.7947H30.2608C32.2332 36.7947 33.8335 35.2496 33.8335 33.3452V13.798H0.488281V33.3452ZM24.3063 19.2597C24.3063 18.7854 24.7082 18.3974 25.1995 18.3974H28.1767C28.668 18.3974 29.0699 18.7854 29.0699 19.2597V22.1343C29.0699 22.6086 28.668 22.9967 28.1767 22.9967H25.1995C24.7082 22.9967 24.3063 22.6086 24.3063 22.1343V19.2597ZM24.3063 28.4584C24.3063 27.9841 24.7082 27.596 25.1995 27.596H28.1767C28.668 27.596 29.0699 27.9841 29.0699 28.4584V31.333C29.0699 31.8073 28.668 32.1954 28.1767 32.1954H25.1995C24.7082 32.1954 24.3063 31.8073 24.3063 31.333V28.4584ZM14.7791 19.2597C14.7791 18.7854 15.181 18.3974 15.6723 18.3974H18.6495C19.1408 18.3974 19.5427 18.7854 19.5427 19.2597V22.1343C19.5427 22.6086 19.1408 22.9967 18.6495 22.9967H15.6723C15.181 22.9967 14.7791 22.6086 14.7791 22.1343V19.2597ZM14.7791 28.4584C14.7791 27.9841 15.181 27.596 15.6723 27.596H18.6495C19.1408 27.596 19.5427 27.9841 19.5427 28.4584V31.333C19.5427 31.8073 19.1408 32.1954 18.6495 32.1954H15.6723C15.181 32.1954 14.7791 31.8073 14.7791 31.333V28.4584ZM5.25188 19.2597C5.25188 18.7854 5.65381 18.3974 6.14506 18.3974H9.12231C9.61355 18.3974 10.0155 18.7854 10.0155 19.2597V22.1343C10.0155 22.6086 9.61355 22.9967 9.12231 22.9967H6.14506C5.65381 22.9967 5.25188 22.6086 5.25188 22.1343V19.2597ZM5.25188 28.4584C5.25188 27.9841 5.65381 27.596 6.14506 27.596H9.12231C9.61355 27.596 10.0155 27.9841 10.0155 28.4584V31.333C10.0155 31.8073 9.61355 32.1954 9.12231 32.1954H6.14506C5.65381 32.1954 5.25188 31.8073 5.25188 31.333V28.4584ZM30.2608 4.59934H26.6881V1.14983C26.6881 0.517425 26.1522 0 25.4972 0H23.1154C22.4604 0 21.9245 0.517425 21.9245 1.14983V4.59934H12.3973V1.14983C12.3973 0.517425 11.8614 0 11.2064 0H8.82458C8.16959 0 7.63368 0.517425 7.63368 1.14983V4.59934H4.06098C2.08855 4.59934 0.488281 6.14443 0.488281 8.04884V11.4983H33.8335V8.04884C33.8335 6.14443 32.2332 4.59934 30.2608 4.59934Z" fill="white"/>
</svg>
