<svg width="25" height="29" viewBox="0 0 25 29" fill="none" xmlns="http://www.w3.org/2000/svg">
<path d="M0 26.2812C0 27.7822 1.19978 29 2.67857 29H22.3214C23.8002 29 25 27.7822 25 26.2812V10.875H0V26.2812ZM3.57143 15.4062C3.57143 14.9078 3.97321 14.5 4.46429 14.5H9.82143C10.3125 14.5 10.7143 14.9078 10.7143 15.4062V20.8438C10.7143 21.3422 10.3125 21.75 9.82143 21.75H4.46429C3.97321 21.75 3.57143 21.3422 3.57143 20.8438V15.4062ZM22.3214 3.625H19.6429V0.90625C19.6429 0.407812 19.2411 0 18.75 0H16.9643C16.4732 0 16.0714 0.407812 16.0714 0.90625V3.625H8.92857V0.90625C8.92857 0.407812 8.52679 0 8.03571 0H6.25C5.75893 0 5.35714 0.407812 5.35714 0.90625V3.625H2.67857C1.19978 3.625 0 4.84277 0 6.34375V9.0625H25V6.34375C25 4.84277 23.8002 3.625 22.3214 3.625Z" fill="white"/>
</svg>
