<svg width="41" height="36" viewBox="0 0 41 36" fill="none" xmlns="http://www.w3.org/2000/svg">
<path d="M4.01704 0C3.27083 0 2.54138 0.241216 1.92093 0.693143C1.30048 1.14507 0.816898 1.78741 0.531337 2.53894C0.245775 3.29047 0.171059 4.11743 0.316637 4.91525C0.462215 5.71307 0.821549 6.44591 1.3492 7.02111C1.87685 7.5963 2.54911 7.98801 3.28098 8.14671C4.01285 8.30541 4.77145 8.22396 5.46086 7.91266C6.15027 7.60137 6.73951 7.07421 7.15408 6.39786C7.56865 5.7215 7.78993 4.92632 7.78993 4.11287C7.78993 3.02207 7.39243 1.97594 6.68488 1.20463C5.97732 0.433319 5.01767 0 4.01704 0ZM4.01704 13.7096C3.27083 13.7096 2.54138 13.9508 1.92093 14.4027C1.30048 14.8546 0.816898 15.497 0.531337 16.2485C0.245775 17 0.171059 17.827 0.316637 18.6248C0.462215 19.4226 0.821549 20.1555 1.3492 20.7307C1.87685 21.3059 2.54911 21.6976 3.28098 21.8563C4.01285 22.015 4.77145 21.9335 5.46086 21.6222C6.15027 21.3109 6.73951 20.7838 7.15408 20.1074C7.56865 19.4311 7.78993 18.6359 7.78993 17.8224C7.78993 16.7316 7.39243 15.6855 6.68488 14.9142C5.97732 14.1429 5.01767 13.7096 4.01704 13.7096ZM4.01704 27.4191C3.27083 27.4191 2.54138 27.6603 1.92093 28.1123C1.30048 28.5642 0.816898 29.2065 0.531337 29.9581C0.245775 30.7096 0.171059 31.5366 0.316637 32.3344C0.462215 33.1322 0.821549 33.865 1.3492 34.4402C1.87685 35.0154 2.54911 35.4071 3.28098 35.5658C4.01285 35.7245 4.77145 35.6431 5.46086 35.3318C6.15027 35.0205 6.73951 34.4933 7.15408 33.817C7.56865 33.1406 7.78993 32.3454 7.78993 31.532C7.78993 30.4412 7.39243 29.3951 6.68488 28.6238C5.97732 27.8524 5.01767 27.4191 4.01704 27.4191ZM39.2307 28.7901H14.0781C13.7445 28.7901 13.4247 28.9345 13.1888 29.1916C12.953 29.4487 12.8205 29.7974 12.8205 30.161V32.903C12.8205 33.2666 12.953 33.6153 13.1888 33.8724C13.4247 34.1295 13.7445 34.2739 14.0781 34.2739H39.2307C39.5643 34.2739 39.8841 34.1295 40.12 33.8724C40.3559 33.6153 40.4883 33.2666 40.4883 32.903V30.161C40.4883 29.7974 40.3559 29.4487 40.12 29.1916C39.8841 28.9345 39.5643 28.7901 39.2307 28.7901ZM39.2307 1.37096H14.0781C13.7445 1.37096 13.4247 1.5154 13.1888 1.7725C12.953 2.0296 12.8205 2.37831 12.8205 2.74191V5.48383C12.8205 5.84743 12.953 6.19613 13.1888 6.45324C13.4247 6.71034 13.7445 6.85478 14.0781 6.85478H39.2307C39.5643 6.85478 39.8841 6.71034 40.12 6.45324C40.3559 6.19613 40.4883 5.84743 40.4883 5.48383V2.74191C40.4883 2.37831 40.3559 2.0296 40.12 1.7725C39.8841 1.5154 39.5643 1.37096 39.2307 1.37096ZM39.2307 15.0805H14.0781C13.7445 15.0805 13.4247 15.225 13.1888 15.4821C12.953 15.7392 12.8205 16.0879 12.8205 16.4515V19.1934C12.8205 19.557 12.953 19.9057 13.1888 20.1628C13.4247 20.4199 13.7445 20.5643 14.0781 20.5643H39.2307C39.5643 20.5643 39.8841 20.4199 40.12 20.1628C40.3559 19.9057 40.4883 19.557 40.4883 19.1934V16.4515C40.4883 16.0879 40.3559 15.7392 40.12 15.4821C39.8841 15.225 39.5643 15.0805 39.2307 15.0805Z" fill="white"/>
</svg>
