<svg width="41" height="36" viewBox="0 0 41 36" fill="none" xmlns="http://www.w3.org/2000/svg">
<path d="M19.5885 9.24721L6.7079 21.3304V34.3717C6.7079 34.7094 6.82567 35.0332 7.0353 35.272C7.24493 35.5107 7.52924 35.6449 7.82571 35.6449L15.6546 35.6218C15.95 35.6201 16.2329 35.4852 16.4414 35.2466C16.6498 35.0081 16.7668 34.6852 16.7668 34.3486V26.7327C16.7668 26.395 16.8845 26.0712 17.0942 25.8324C17.3038 25.5936 17.5881 25.4595 17.8846 25.4595H22.3558C22.6523 25.4595 22.9366 25.5936 23.1462 25.8324C23.3559 26.0712 23.4736 26.395 23.4736 26.7327V34.343C23.4732 34.5106 23.5017 34.6766 23.5577 34.8315C23.6137 34.9864 23.6959 35.1272 23.7998 35.2459C23.9036 35.3645 24.027 35.4587 24.1629 35.5229C24.2987 35.5871 24.4443 35.6202 24.5914 35.6202L32.4175 35.6449C32.714 35.6449 32.9983 35.5107 33.2079 35.272C33.4175 35.0332 33.5353 34.7094 33.5353 34.3717V21.3217L20.6574 9.24721C20.5061 9.10822 20.3175 9.03242 20.123 9.03242C19.9285 9.03242 19.7399 9.10822 19.5885 9.24721ZM39.9348 17.46L34.0942 11.9766V0.95488C34.0942 0.70163 34.0059 0.458753 33.8487 0.279678C33.6914 0.100603 33.4782 0 33.2558 0H29.3435C29.1212 0 28.9079 0.100603 28.7507 0.279678C28.5935 0.458753 28.5052 0.70163 28.5052 0.95488V6.7327L22.2503 0.871328C21.6501 0.308728 20.8969 0.00112465 20.1195 0.00112465C19.3421 0.00112465 18.5889 0.308728 17.9887 0.871328L0.304253 17.46C0.21936 17.5399 0.149125 17.6381 0.0975608 17.7489C0.0459963 17.8598 0.0141129 17.9811 0.00373219 18.106C-0.00664848 18.2309 0.00467709 18.3569 0.0370618 18.4768C0.0694465 18.5967 0.122256 18.7081 0.192472 18.8048L1.97398 21.2715C2.044 21.3685 2.13013 21.4488 2.22744 21.5078C2.32475 21.5669 2.43132 21.6034 2.54105 21.6155C2.65079 21.6275 2.76153 21.6148 2.86694 21.578C2.97235 21.5413 3.07036 21.4812 3.15536 21.4012L19.5885 5.98471C19.7399 5.84571 19.9285 5.76992 20.123 5.76992C20.3175 5.76992 20.5061 5.84571 20.6574 5.98471L37.0913 21.4012C37.1762 21.4812 37.274 21.5414 37.3793 21.5783C37.4846 21.6151 37.5952 21.628 37.7048 21.6162C37.8145 21.6044 37.921 21.5681 38.0183 21.5093C38.1156 21.4506 38.2019 21.3706 38.272 21.2739L40.0535 18.8072C40.1237 18.7099 40.1763 18.5979 40.2083 18.4775C40.2403 18.3571 40.251 18.2306 40.24 18.1054C40.229 17.9803 40.1963 17.8588 40.1439 17.748C40.0916 17.6372 40.0205 17.5394 39.9348 17.46Z" fill="white"/>
</svg>
