<svg width="33" height="29" viewBox="0 0 33 29" fill="none" xmlns="http://www.w3.org/2000/svg">
<path d="M1.17857 5.32653H31.8214C32.4724 5.32653 33 4.79662 33 4.14286V1.18367C33 0.529916 32.4724 0 31.8214 0H1.17857C0.527632 0 0 0.529916 0 1.18367V4.14286C0 4.79662 0.527632 5.32653 1.17857 5.32653ZM1.17857 17.1633H31.8214C32.4724 17.1633 33 16.6334 33 15.9796V13.0204C33 12.3667 32.4724 11.8367 31.8214 11.8367H1.17857C0.527632 11.8367 0 12.3667 0 13.0204V15.9796C0 16.6334 0.527632 17.1633 1.17857 17.1633ZM1.17857 29H31.8214C32.4724 29 33 28.4701 33 27.8163V24.8571C33 24.2034 32.4724 23.6735 31.8214 23.6735H1.17857C0.527632 23.6735 0 24.2034 0 24.8571V27.8163C0 28.4701 0.527632 29 1.17857 29Z" fill="white"/>
</svg>
